<mxfile host="65bd71144e">
    <diagram id="ujuErICfZpqxu999DgB2" name="Page-1">
        <mxGraphModel dx="2286" dy="656" grid="1" gridSize="10" guides="1" tooltips="1" connect="1" arrows="1" fold="1" page="0" pageScale="1" pageWidth="850" pageHeight="1100" background="#ffffff" math="0" shadow="0">
            <root>
                <mxCell id="0"/>
                <mxCell id="1" parent="0"/>
                <mxCell id="131" value="home" style="rounded=1;whiteSpace=wrap;html=1;" vertex="1" parent="1">
                    <mxGeometry x="-315" y="180" width="120" height="60" as="geometry"/>
                </mxCell>
                <mxCell id="132" value="&lt;u&gt;home_id&lt;/u&gt;" style="ellipse;whiteSpace=wrap;html=1;" vertex="1" parent="1">
                    <mxGeometry x="-315" y="270" width="120" height="80" as="geometry"/>
                </mxCell>
                <mxCell id="133" value="home_jumbotron_image" style="ellipse;whiteSpace=wrap;html=1;" vertex="1" parent="1">
                    <mxGeometry x="-335" y="380" width="160" height="80" as="geometry"/>
                </mxCell>
                <mxCell id="134" value="home_jumbotron_title" style="ellipse;whiteSpace=wrap;html=1;" vertex="1" parent="1">
                    <mxGeometry x="-335" y="490" width="160" height="80" as="geometry"/>
                </mxCell>
                <mxCell id="135" value="home_jumbotron_description" style="ellipse;whiteSpace=wrap;html=1;" vertex="1" parent="1">
                    <mxGeometry x="-335" y="600" width="160" height="80" as="geometry"/>
                </mxCell>
                <mxCell id="136" value="home_jumbotron_button_link" style="ellipse;whiteSpace=wrap;html=1;" vertex="1" parent="1">
                    <mxGeometry x="-370" y="820" width="230" height="80" as="geometry"/>
                </mxCell>
                <mxCell id="137" value="home_jumbotron_button_text" style="ellipse;whiteSpace=wrap;html=1;" vertex="1" parent="1">
                    <mxGeometry x="-370" y="710" width="230" height="80" as="geometry"/>
                </mxCell>
                <mxCell id="138" value="brand_image" style="ellipse;whiteSpace=wrap;html=1;" vertex="1" parent="1">
                    <mxGeometry x="-390" y="3560" width="230" height="80" as="geometry"/>
                </mxCell>
                <mxCell id="139" value="brand_name" style="ellipse;whiteSpace=wrap;html=1;" vertex="1" parent="1">
                    <mxGeometry x="-390" y="3670" width="230" height="80" as="geometry"/>
                </mxCell>
                <mxCell id="140" value="portofolio" style="rounded=1;whiteSpace=wrap;html=1;" vertex="1" parent="1">
                    <mxGeometry x="-760" y="210" width="120" height="60" as="geometry"/>
                </mxCell>
                <mxCell id="141" value="&lt;u&gt;portofolio_id&lt;/u&gt;" style="ellipse;whiteSpace=wrap;html=1;" vertex="1" parent="1">
                    <mxGeometry x="-820" y="330" width="120" height="80" as="geometry"/>
                </mxCell>
                <mxCell id="142" value="&lt;u&gt;portofolio_title&lt;/u&gt;" style="ellipse;whiteSpace=wrap;html=1;" vertex="1" parent="1">
                    <mxGeometry x="-820" y="450" width="120" height="80" as="geometry"/>
                </mxCell>
                <mxCell id="143" value="&lt;u&gt;portofolio_description&lt;/u&gt;" style="ellipse;whiteSpace=wrap;html=1;" vertex="1" parent="1">
                    <mxGeometry x="-820" y="570" width="120" height="80" as="geometry"/>
                </mxCell>
                <mxCell id="144" value="brand" style="rounded=1;whiteSpace=wrap;html=1;" vertex="1" parent="1">
                    <mxGeometry x="-335" y="3340" width="120" height="60" as="geometry"/>
                </mxCell>
                <mxCell id="145" value="brand_id" style="ellipse;whiteSpace=wrap;html=1;" vertex="1" parent="1">
                    <mxGeometry x="-390" y="3440" width="230" height="80" as="geometry"/>
                </mxCell>
                <mxCell id="146" value="about" style="rounded=1;whiteSpace=wrap;html=1;" vertex="1" parent="1">
                    <mxGeometry x="-315" y="1090" width="120" height="60" as="geometry"/>
                </mxCell>
                <mxCell id="147" value="about_id" style="ellipse;whiteSpace=wrap;html=1;fontStyle=4" vertex="1" parent="1">
                    <mxGeometry x="-370" y="1190" width="230" height="80" as="geometry"/>
                </mxCell>
                <mxCell id="148" value="about_description_title" style="ellipse;whiteSpace=wrap;html=1;" vertex="1" parent="1">
                    <mxGeometry x="-370" y="1310" width="230" height="80" as="geometry"/>
                </mxCell>
                <mxCell id="149" value="about_description_desc" style="ellipse;whiteSpace=wrap;html=1;" vertex="1" parent="1">
                    <mxGeometry x="-370" y="1420" width="230" height="80" as="geometry"/>
                </mxCell>
                <mxCell id="150" value="about_description_right_section" style="ellipse;whiteSpace=wrap;html=1;" vertex="1" parent="1">
                    <mxGeometry x="-370" y="1530" width="230" height="80" as="geometry"/>
                </mxCell>
                <mxCell id="151" value="about_company_history" style="ellipse;whiteSpace=wrap;html=1;" vertex="1" parent="1">
                    <mxGeometry x="220" y="1310" width="230" height="80" as="geometry"/>
                </mxCell>
                <mxCell id="152" value="management_team_job" style="ellipse;whiteSpace=wrap;html=1;" vertex="1" parent="1">
                    <mxGeometry x="755" y="1480" width="230" height="80" as="geometry"/>
                </mxCell>
                <mxCell id="153" value="management_team_name" style="ellipse;whiteSpace=wrap;html=1;" vertex="1" parent="1">
                    <mxGeometry x="755" y="1600" width="230" height="80" as="geometry"/>
                </mxCell>
                <mxCell id="154" value="management_team_image" style="ellipse;whiteSpace=wrap;html=1;" vertex="1" parent="1">
                    <mxGeometry x="755" y="1380" width="230" height="80" as="geometry"/>
                </mxCell>
                <mxCell id="155" value="management_team_description" style="ellipse;whiteSpace=wrap;html=1;" vertex="1" parent="1">
                    <mxGeometry x="755" y="1720" width="230" height="80" as="geometry"/>
                </mxCell>
                <mxCell id="156" value="about_vision" style="ellipse;whiteSpace=wrap;html=1;" vertex="1" parent="1">
                    <mxGeometry x="-80" y="1310" width="230" height="80" as="geometry"/>
                </mxCell>
                <mxCell id="157" value="about_mission" style="ellipse;whiteSpace=wrap;html=1;" vertex="1" parent="1">
                    <mxGeometry x="-80" y="1420" width="230" height="80" as="geometry"/>
                </mxCell>
                <mxCell id="158" value="services" style="rounded=1;whiteSpace=wrap;html=1;" vertex="1" parent="1">
                    <mxGeometry x="-315" y="1870" width="120" height="60" as="geometry"/>
                </mxCell>
                <mxCell id="159" value="services_id" style="ellipse;whiteSpace=wrap;html=1;fontStyle=4" vertex="1" parent="1">
                    <mxGeometry x="-370" y="2000" width="230" height="80" as="geometry"/>
                </mxCell>
                <mxCell id="160" value="services_name" style="ellipse;whiteSpace=wrap;html=1;" vertex="1" parent="1">
                    <mxGeometry x="-370" y="2310" width="230" height="80" as="geometry"/>
                </mxCell>
                <mxCell id="161" value="services_description" style="ellipse;whiteSpace=wrap;html=1;" vertex="1" parent="1">
                    <mxGeometry x="-370" y="2420" width="230" height="80" as="geometry"/>
                </mxCell>
                <mxCell id="162" value="contact" style="rounded=1;whiteSpace=wrap;html=1;" vertex="1" parent="1">
                    <mxGeometry x="-775" y="2630" width="120" height="60" as="geometry"/>
                </mxCell>
                <mxCell id="163" value="contact_id" style="ellipse;whiteSpace=wrap;html=1;fontStyle=4" vertex="1" parent="1">
                    <mxGeometry x="-830" y="2760" width="230" height="80" as="geometry"/>
                </mxCell>
                <mxCell id="164" value="contact_phone" style="ellipse;whiteSpace=wrap;html=1;" vertex="1" parent="1">
                    <mxGeometry x="-830" y="3020" width="230" height="80" as="geometry"/>
                </mxCell>
                <mxCell id="165" value="contact_email" style="ellipse;whiteSpace=wrap;html=1;" vertex="1" parent="1">
                    <mxGeometry x="-830" y="3150" width="230" height="80" as="geometry"/>
                </mxCell>
                <mxCell id="166" value="contact_location" style="ellipse;whiteSpace=wrap;html=1;" vertex="1" parent="1">
                    <mxGeometry x="-830" y="2890" width="230" height="80" as="geometry"/>
                </mxCell>
                <mxCell id="167" value="messages" style="rounded=1;whiteSpace=wrap;html=1;" vertex="1" parent="1">
                    <mxGeometry x="210" y="2600" width="120" height="60" as="geometry"/>
                </mxCell>
                <mxCell id="168" value="messages_id" style="ellipse;whiteSpace=wrap;html=1;fontStyle=4" vertex="1" parent="1">
                    <mxGeometry x="160" y="2710" width="230" height="80" as="geometry"/>
                </mxCell>
                <mxCell id="169" value="messages_name" style="ellipse;whiteSpace=wrap;html=1;" vertex="1" parent="1">
                    <mxGeometry x="160" y="2830" width="230" height="80" as="geometry"/>
                </mxCell>
                <mxCell id="170" value="messages_email" style="ellipse;whiteSpace=wrap;html=1;" vertex="1" parent="1">
                    <mxGeometry x="160" y="2960" width="230" height="80" as="geometry"/>
                </mxCell>
                <mxCell id="171" value="messages_subject" style="ellipse;whiteSpace=wrap;html=1;" vertex="1" parent="1">
                    <mxGeometry x="160" y="3090" width="230" height="80" as="geometry"/>
                </mxCell>
                <mxCell id="172" value="messages_description" style="ellipse;whiteSpace=wrap;html=1;" vertex="1" parent="1">
                    <mxGeometry x="160" y="3220" width="230" height="80" as="geometry"/>
                </mxCell>
                <mxCell id="173" value="services_image" style="ellipse;whiteSpace=wrap;html=1;" vertex="1" parent="1">
                    <mxGeometry x="-370" y="2210" width="230" height="80" as="geometry"/>
                </mxCell>
                <mxCell id="174" value="services_logo" style="ellipse;whiteSpace=wrap;html=1;" vertex="1" parent="1">
                    <mxGeometry x="-370" y="2110" width="230" height="80" as="geometry"/>
                </mxCell>
                <mxCell id="175" value="management_team" style="rounded=1;whiteSpace=wrap;html=1;" vertex="1" parent="1">
                    <mxGeometry x="810" y="1190" width="120" height="60" as="geometry"/>
                </mxCell>
                <mxCell id="176" value="management_team_id" style="ellipse;whiteSpace=wrap;html=1;fontStyle=4" vertex="1" parent="1">
                    <mxGeometry x="755" y="1270" width="230" height="80" as="geometry"/>
                </mxCell>
            </root>
        </mxGraphModel>
    </diagram>
</mxfile>